<svg width="20" height="26" viewBox="0 0 20 26" fill="none" xmlns="http://www.w3.org/2000/svg">
<path d="M19.6848 10.8606H11.7657C11.0456 10.8606 10.3549 10.5745 9.84575 10.0654C9.33657 9.55617 9.05051 8.86556 9.0505 8.14545V0.226263C9.0505 0.166254 9.02667 0.108703 8.98423 0.0662708C8.9418 0.0238384 8.88425 0 8.82424 0H3.6202C2.66006 0 1.73925 0.381413 1.06033 1.06033C0.381413 1.73925 0 2.66006 0 3.6202V21.7212C0 22.6813 0.381413 23.6022 1.06033 24.2811C1.73925 24.96 2.66006 25.3414 3.6202 25.3414H16.2909C17.251 25.3414 18.1719 24.96 18.8508 24.2811C19.5297 23.6022 19.9111 22.6813 19.9111 21.7212V11.0869C19.9111 11.0269 19.8873 10.9693 19.8448 10.9269C19.8024 10.8844 19.7449 10.8606 19.6848 10.8606ZM14.4808 19.9111H5.4303C5.19027 19.9111 4.96007 19.8158 4.79034 19.646C4.62061 19.4763 4.52525 19.2461 4.52525 19.0061C4.52525 18.766 4.62061 18.5358 4.79034 18.3661C4.96007 18.1964 5.19027 18.101 5.4303 18.101H14.4808C14.7208 18.101 14.951 18.1964 15.1208 18.3661C15.2905 18.5358 15.3859 18.766 15.3859 19.0061C15.3859 19.2461 15.2905 19.4763 15.1208 19.646C14.951 19.8158 14.7208 19.9111 14.4808 19.9111ZM14.4808 15.3859H5.4303C5.19027 15.3859 4.96007 15.2905 4.79034 15.1208C4.62061 14.951 4.52525 14.7208 4.52525 14.4808C4.52525 14.2408 4.62061 14.0106 4.79034 13.8408C4.96007 13.6711 5.19027 13.5758 5.4303 13.5758H14.4808C14.7208 13.5758 14.951 13.6711 15.1208 13.8408C15.2905 14.0106 15.3859 14.2408 15.3859 14.4808C15.3859 14.7208 15.2905 14.951 15.1208 15.1208C14.951 15.2905 14.7208 15.3859 14.4808 15.3859Z" fill="#0060A9"/>
<path d="M19.187 8.85901L11.0523 0.724305C11.0364 0.708579 11.0163 0.69788 10.9944 0.693554C10.9726 0.689228 10.9499 0.691468 10.9293 0.699991C10.9087 0.708515 10.891 0.722942 10.8786 0.741459C10.8662 0.759976 10.8595 0.781756 10.8594 0.804063V8.14685C10.8594 8.38688 10.9547 8.61709 11.1245 8.78682C11.2942 8.95655 11.5244 9.0519 11.7644 9.0519H19.1072C19.1295 9.05181 19.1513 9.04512 19.1698 9.03268C19.1883 9.02025 19.2028 9.00261 19.2113 8.982C19.2198 8.96139 19.222 8.93871 19.2177 8.91683C19.2134 8.89495 19.2027 8.87483 19.187 8.85901Z" fill="#0060A9"/>
</svg>
