<svg width="12" height="12" viewBox="0 0 12 12" fill="none" xmlns="http://www.w3.org/2000/svg">
<path d="M6.185 1.07687L10.685 2.87686C10.86 2.94686 11 3.15686 11 3.34186V5.00186C11 5.27686 10.775 5.50186 10.5 5.50186H1.5C1.225 5.50186 1 5.27686 1 5.00186V3.34186C1 3.15686 1.14 2.94686 1.315 2.87686L5.815 1.07687C5.915 1.03688 6.085 1.03688 6.185 1.07687Z" stroke="#0060A9" stroke-width="0.75" stroke-miterlimit="10" stroke-linecap="round" stroke-linejoin="round"/>
<path d="M11 11H1V9.5C1 9.225 1.225 9 1.5 9H10.5C10.775 9 11 9.225 11 9.5V11Z" stroke="#0060A9" stroke-width="0.75" stroke-miterlimit="10" stroke-linecap="round" stroke-linejoin="round"/>
<path d="M2 9V5.5" stroke="#0060A9" stroke-width="0.75" stroke-miterlimit="10" stroke-linecap="round" stroke-linejoin="round"/>
<path d="M4 9V5.5" stroke="#0060A9" stroke-width="0.75" stroke-miterlimit="10" stroke-linecap="round" stroke-linejoin="round"/>
<path d="M6 9V5.5" stroke="#0060A9" stroke-width="0.75" stroke-miterlimit="10" stroke-linecap="round" stroke-linejoin="round"/>
<path d="M8 9V5.5" stroke="#0060A9" stroke-width="0.75" stroke-miterlimit="10" stroke-linecap="round" stroke-linejoin="round"/>
<path d="M10 9V5.5" stroke="#0060A9" stroke-width="0.75" stroke-miterlimit="10" stroke-linecap="round" stroke-linejoin="round"/>
<path d="M0.5 11H11.5" stroke="#0060A9" stroke-width="0.75" stroke-miterlimit="10" stroke-linecap="round" stroke-linejoin="round"/>
<path d="M6 4.25C6.41421 4.25 6.75 3.91421 6.75 3.5C6.75 3.08579 6.41421 2.75 6 2.75C5.58579 2.75 5.25 3.08579 5.25 3.5C5.25 3.91421 5.58579 4.25 6 4.25Z" stroke="#0060A9" stroke-width="0.75" stroke-miterlimit="10" stroke-linecap="round" stroke-linejoin="round"/>
</svg>
